@startuml class-sample

!include http://172.18.0.4/core.puml
' uncomment the following line and comment the first to use locally
'!include core.puml
!include http://172.18.0.4/class-diagram-helper.puml
' uncomment the following line and comment the first to use locally
'!include class-diagram-helper.puml


GREY_ARROW

abstract class BaseClass {
    +  AbstractMethod() : void
    #  VirtualMethod(s:string) : int
}
class SubClass {
    + AbstractMethod() : void
    # VirtualMethod(s:string) : int
}

interface IInterfaceA {
}

interface "IInterfaceA`1"<T> {
    Value : T <<get>>
}
class ImplementClass {
    + Value : int <<get>>
}
BaseClass <|-- SubClass
IInterfaceA <|-- "IInterfaceA`1"
"IInterfaceA`1" "<int>" <|-- ImplementClass



@enduml